<svg xmlns="http://www.w3.org/2000/svg" width="480" height="480" viewBox="0 0 480 480"><rect width="480" height="480" fill="#eed4d4"/><circle cx="400" cy="80" r="160" fill="#fbefed" opacity=".55"/><circle cx="58" cy="435" r="155" fill="#a65f68" opacity=".08"/><path d="M174 104 115 142 68 221 133 257 157 218 157 382 323 382 323 218 347 257 412 221 365 142 306 104 278 104 Q240 149 202 104Z" fill="#fbefed" stroke="#a65f68" stroke-opacity=".3" stroke-width="2"/><path d="M202 104 Q240 167 278 104" fill="none" stroke="#a65f68" stroke-opacity=".3" stroke-width="3"/><circle cx="240" cy="238" r="43" fill="#a65f68" opacity=".9"/><path d="M220 252 240 218 260 252Z" fill="#fbefed"/><path d="M164 364H316" stroke="#a65f68" stroke-opacity=".18" stroke-width="2"/><text x="240" y="440" text-anchor="middle" font-family="sans-serif" font-size="10" letter-spacing="4" fill="#a65f68">STUDIO / SAMPLE 06</text></svg>